<svg xmlns="http://www.w3.org/2000/svg" version="1.1" xmlns:xlink="http://www.w3.org/1999/xlink" xmlns:svgjs="http://svgjs.dev/svgjs" width="1500" height="1500" viewBox="0 0 1500 1500"><rect width="1500" height="1500" fill="#ffffff"></rect><g transform="matrix(0.6666666666666666,0,0,0.6666666666666666,250,250)"><svg viewBox="0 0 280 280" data-background-color="#ffffff" preserveAspectRatio="xMidYMid meet" height="1500" width="1500" xmlns="http://www.w3.org/2000/svg" xmlns:xlink="http://www.w3.org/1999/xlink"><g id="tight-bounds" transform="matrix(1,0,0,1,0,0)"><svg viewBox="0 0 280 280" height="280" width="280"><g><svg viewBox="0 0 280 280" height="280" width="280"><g><svg viewBox="0 0 280 280" height="280" width="280"><g id="textblocktransform"><svg viewBox="0 0 280 280" height="280" width="280" id="textblock"><g><svg viewBox="0 0 280 280" height="280" width="280"><g transform="matrix(1,0,0,1,99.35160357460364,90.50252531694167)"><svg viewBox="0 0 81.2967928507927 98.99494936611666" height="98.99494936611666" width="81.2967928507927"><g id="icon-0"><svg xmlns="http://www.w3.org/2000/svg" xmlns:xlink="http://www.w3.org/1999/xlink" version="1.1" x="0" y="0" viewBox="10.018 1.75 75.96300000000005 92.5" enable-background="new 0 0 96.001 96" xml:space="preserve" height="98.99494936611666" width="81.2967928507927" class="icon-jxe-0" data-fill-palette-color="accent" id="jxe-0"><g fill="#000000" data-fill-palette-color="accent"><path fill="#000000" d="M21.746 1.75C15.279 1.75 10.018 7.01 10.018 13.475 10.018 19.52 14.615 24.51 20.496 25.137V56.317H15.064C14.374 56.317 13.814 56.877 13.814 57.567V93C13.814 93.69 14.374 94.25 15.064 94.25H28.426C29.116 94.25 29.676 93.69 29.676 93V57.566C29.676 56.876 29.116 56.316 28.426 56.316H22.995V25.136C28.877 24.509 33.474 19.519 33.474 13.474 33.476 7.01 28.214 1.75 21.746 1.75M27.177 58.816V91.75H16.314V58.816zM21.746 22.705C16.658 22.705 12.518 18.564 12.518 13.475 12.518 8.388 16.658 4.25 21.746 4.25 26.835 4.25 30.975 8.388 30.975 13.475 30.976 18.564 26.835 22.705 21.746 22.705" data-fill-palette-color="accent"></path><path fill="#000000" d="M48.465 2.157A1.251 1.251 0 0 0 46.619 3.843L55.411 13.475 46.618 23.113A1.25 1.25 0 0 0 46.292 23.956V56.317H41.319C40.629 56.317 40.069 56.877 40.069 57.567V93C40.069 93.69 40.629 94.25 41.319 94.25H54.681C55.371 94.25 55.931 93.69 55.931 93V57.566C55.931 56.876 55.371 56.316 54.681 56.316H48.791V24.439L58.026 14.317A1.25 1.25 0 0 0 58.025 12.631zM53.432 58.816V91.75H42.569V58.816z" data-fill-palette-color="accent"></path><path fill="#000000" d="M84.732 1.75H71.352C70.662 1.75 70.102 2.31 70.102 3V8.107H63.777A1.25 1.25 0 0 0 63.777 10.607H70.102V15.719C70.102 16.409 70.662 16.969 71.352 16.969H80.226V23.376L73.446 29.143A1.25 1.25 0 0 0 73.006 30.095V56.316H67.573C66.883 56.316 66.323 56.876 66.323 57.566V93C66.323 93.69 66.883 94.25 67.573 94.25H80.939C81.629 94.25 82.189 93.69 82.189 93V57.566C82.189 56.876 81.629 56.316 80.939 56.316H75.505V30.674L82.285 24.907A1.25 1.25 0 0 0 82.725 23.955V16.97H84.731C85.421 16.97 85.981 16.41 85.981 15.72V3A1.25 1.25 0 0 0 84.732 1.75M79.689 58.816V91.75H68.823V58.816zM83.482 14.47H72.602V4.25H83.482z" data-fill-palette-color="accent"></path></g></svg></g></svg></g><g id="text-0"><path d="M15.052 93.762v0c0.522-1.423 1.49-2.394 2.903-2.913 1.414-0.52 2.988-0.518 4.724 0.005v0c0.46 0.14 1.166 0.399 2.115 0.776 0.956 0.379 1.993 0.781 3.11 1.205 1.124 0.426 2.162 0.814 3.114 1.163v0l1.811-2.524 1.171 1.112c-0.289 0.633-0.591 1.358-0.904 2.175-0.316 0.823-0.621 1.635-0.916 2.437v0c-0.356 0.971-0.665 1.85-0.925 2.637-0.26 0.786-0.496 1.507-0.707 2.161v0l-1.571-0.021 0.223-3.022c-0.843-0.338-1.555-0.627-2.134-0.869-0.58-0.241-1.159-0.475-1.737-0.701-0.585-0.229-1.282-0.478-2.094-0.747v0c-1.532-0.534-2.746-0.666-3.641-0.397-0.895 0.269-1.643 0.873-2.243 1.812v0c0.322 1.37 0.918 2.498 1.787 3.386 0.865 0.879 1.778 1.481 2.74 1.805v0l-2.165 0.784c-1.358-0.697-2.475-1.598-3.35-2.701-0.871-1.095-1.429-2.298-1.673-3.611-0.246-1.306-0.125-2.624 0.362-3.952zM12.622 99.804v0c0.827 0.303 1.498 0.55 2.012 0.738 0.514 0.189 1.022 0.382 1.526 0.581 0.509 0.201 1.181 0.483 2.014 0.846v0l8.798 3.057 1.784-2.45 1.212 0.999c-0.363 0.834-0.687 1.622-0.973 2.363-0.288 0.747-0.598 1.572-0.929 2.475v0c-0.356 0.971-0.653 1.819-0.891 2.543-0.237 0.724-0.475 1.45-0.714 2.18v0l-1.612 0.091 0.251-3.097c-0.802-0.294-1.737-0.673-2.805-1.135-1.061-0.46-2.081-0.87-3.058-1.229v0c-0.727-0.267-1.334-0.482-1.822-0.647-0.493-0.167-1.019-0.324-1.576-0.471-0.557-0.148-1.29-0.331-2.198-0.551v0l-1.787 2.662-1.594-0.073c0.465-1.5 0.87-2.934 1.215-4.301 0.343-1.36 0.725-2.888 1.147-4.581z" fill="#000000" data-fill-palette-color="primary"></path><path d="M24.564 74.013v0c0.678-1.142 1.559-2.052 2.643-2.728 1.081-0.67 2.306-0.995 3.676-0.974 1.364 0.018 2.812 0.481 4.345 1.391v0c-0.208 0.56-0.523 1.273-0.945 2.141-0.418 0.862-0.903 1.797-1.455 2.805-0.548 1.002-1.115 1.997-1.701 2.984v0c-0.436 0.735-0.821 1.357-1.154 1.865-0.336 0.515-0.571 0.857-0.703 1.027v0l-1.644-0.976c0.15-0.253 0.378-0.637 0.684-1.154 0.303-0.511 0.634-1.095 0.993-1.751 0.359-0.657 0.694-1.3 1.006-1.93 0.315-0.636 0.561-1.181 0.737-1.635v0c-0.496-0.263-1.062-0.421-1.698-0.473-0.631-0.049-1.262 0.066-1.893 0.344-0.627 0.272-1.166 0.787-1.616 1.545v0c0.164 0.718 0.546 1.442 1.146 2.17 0.606 0.732 1.411 1.396 2.415 1.993v0c2.067 1.227 3.841 1.697 5.322 1.412 1.487-0.282 2.604-1.051 3.35-2.309v0c0.763-1.286 1.106-2.91 1.03-4.873v0l2.034 0.182c0.304 1.516 0.319 2.949 0.044 4.3-0.277 1.357-0.742 2.584-1.392 3.68v0c-0.763 1.286-1.755 2.316-2.975 3.09-1.224 0.78-2.596 1.176-4.118 1.189-1.524 0.004-3.121-0.49-4.791-1.481v0c-1.694-1.005-2.902-2.192-3.627-3.562-0.715-1.372-1.029-2.785-0.943-4.239 0.084-1.449 0.493-2.793 1.23-4.033z" fill="#000000" data-fill-palette-color="primary"></path><path d="M39.885 55.501v0l1.522 0.601-1.322 2.644c0.935 0.437 1.765 0.825 2.49 1.164 0.729 0.335 1.431 0.635 2.105 0.901 0.68 0.27 1.417 0.558 2.211 0.862 0.794 0.304 1.733 0.634 2.817 0.99v0c0.195 0.182 0.401 0.558 0.618 1.127 0.217 0.569 0.41 1.188 0.579 1.859 0.174 0.674 0.288 1.285 0.344 1.83 0.056 0.546 0.013 0.895-0.128 1.046v0c-1.967-0.78-3.759-1.469-5.375-2.067-1.611-0.594-3.198-1.16-4.76-1.699-1.562-0.529-3.228-1.074-5-1.633v0l-2.687 1.641-0.673-1.508c0.562-0.562 1.127-1.126 1.693-1.693 0.567-0.567 1.158-1.179 1.774-1.837v0c1.606-1.716 2.869-3.125 3.792-4.228zM42.441 52.476v0l1.507-1.552 2.847 3.157c0.897 2.119 1.858 4.262 2.884 6.43 1.026 2.157 2.042 4.256 3.05 6.296v0l-1.608 1.718c-0.538-1.262-1.164-2.611-1.877-4.047-0.714-1.436-1.468-2.882-2.262-4.338-0.794-1.447-1.577-2.833-2.349-4.159-0.766-1.321-1.497-2.489-2.192-3.505zM46.107 57.278l-2.159-6.354c1.815 0.757 3.405 1.408 4.769 1.953 1.369 0.55 2.692 1.065 3.969 1.547 1.277 0.491 2.698 1.03 4.262 1.616v0c0.195 0.182 0.377 0.535 0.545 1.058 0.169 0.523 0.291 1.091 0.369 1.703 0.077 0.621 0.106 1.187 0.084 1.697-0.021 0.511-0.113 0.854-0.277 1.03v0c-1.624-0.678-3.041-1.269-4.253-1.772-1.216-0.498-2.386-0.943-3.509-1.336-1.128-0.397-2.394-0.778-3.8-1.142zM52.85 41.645v0l1.577 0.543-1.623 2.966c0.754 1.803 1.467 3.503 2.138 5.1 0.681 1.597 1.366 3.166 2.055 4.707 0.694 1.545 1.447 3.168 2.259 4.87v0l-1.587 1.697c-0.916-2.137-1.972-4.419-3.168-6.845-1.191-2.431-2.548-4.761-4.072-6.992v0l-2.796 1.758-0.708-1.472c1.19-1.154 2.247-2.226 3.173-3.215v0c0.62-0.663 1.117-1.213 1.49-1.651 0.373-0.437 0.793-0.926 1.262-1.466z" fill="#000000" data-fill-palette-color="primary"></path><path d="M75.837 26.368v0l1.327 1.009-2.24 2.228c0.845 0.657 1.563 1.227 2.154 1.71 0.597 0.48 1.185 0.931 1.766 1.352 0.583 0.427 1.245 0.887 1.985 1.38 0.741 0.493 1.666 1.087 2.776 1.782v0c0.175 0.209 0.288 0.611 0.339 1.206 0.051 0.596 0.061 1.241 0.03 1.935-0.028 0.7-0.102 1.318-0.22 1.854-0.118 0.536-0.271 0.855-0.458 0.958v0c-1.331-0.947-2.546-1.8-3.646-2.561-1.103-0.767-2.156-1.496-3.158-2.189-1.005-0.699-2.054-1.415-3.147-2.15-1.102-0.737-2.331-1.538-3.686-2.403v0l-2.768 0.508-0.378-1.528c0.71-0.357 1.405-0.707 2.086-1.047 0.681-0.341 1.466-0.755 2.357-1.242v0c0.978-0.534 1.883-1.044 2.714-1.527 0.825-0.481 1.548-0.906 2.167-1.275zM85.549 21.065v0l1.292 1.029-2.206 2.208c0.015 2.144 0.087 4.067 0.218 5.768 0.128 1.71 0.273 3.384 0.437 5.021 0.167 1.643 0.334 3.419 0.502 5.328v0l-2.496 1.363c-0.113-2.547-0.283-5.101-0.51-7.662-0.233-2.558-0.656-5.263-1.271-8.115v0l-3.12 0.7-0.211-1.619c0.763-0.386 1.438-0.724 2.025-1.014 0.587-0.29 1.182-0.6 1.785-0.929v0c0.797-0.435 1.435-0.799 1.915-1.091 0.479-0.292 1.026-0.621 1.64-0.987z" fill="#000000" data-fill-palette-color="primary"></path><path d="M97.899 15.7v0c0.491 1.469 0.953 2.874 1.385 4.215 0.434 1.348 0.842 2.56 1.222 3.636v0c0.329 0.931 0.726 1.992 1.189 3.18 0.465 1.195 0.875 2.254 1.23 3.177v0l3.288-0.282-0.147 1.624c-0.672 0.181-1.341 0.382-2.007 0.604-0.672 0.223-1.675 0.571-3.009 1.043v0c-1.227 0.434-2.183 0.786-2.866 1.056-0.683 0.27-1.408 0.555-2.173 0.853v0l-1.098-1.183 2.923-1.916c-0.395-1.277-0.751-2.383-1.067-3.318-0.315-0.93-0.68-1.944-1.098-3.043v0c-0.203-0.573-0.39-1.083-0.563-1.532-0.173-0.449-0.372-0.952-0.597-1.509-0.226-0.558-0.531-1.26-0.916-2.109v0l-2.845 0.454-1.074-1.234c0.57-0.23 1.303-0.532 2.197-0.905 0.901-0.375 1.875-0.805 2.922-1.288 1.041-0.481 2.075-0.989 3.104-1.523zM94.082 13.917v0c-0.799 0.283-1.595 0.224-2.388-0.175-0.79-0.393-1.342-1.03-1.653-1.912v0c-0.294-0.831-0.257-1.647 0.111-2.45 0.365-0.809 0.948-1.355 1.747-1.638v0c0.806-0.285 1.605-0.228 2.397 0.172 0.79 0.393 1.333 1.005 1.627 1.836v0c0.312 0.881 0.284 1.723-0.084 2.526-0.365 0.809-0.951 1.356-1.757 1.641z" fill="#000000" data-fill-palette-color="primary"></path><path d="M108.545 29.486v0c-0.011-1.03-0.019-1.894-0.023-2.591-0.005-0.697-0.042-1.447-0.113-2.252v0l1.945-0.434 1.305 2.91c0.403 0.211 0.856 0.343 1.361 0.395 0.496 0.047 0.979 0.018 1.447-0.087v0c0.652-0.145 1.197-0.428 1.638-0.847 0.439-0.426 0.585-0.965 0.44-1.617v0c-0.122-0.547-0.424-0.952-0.907-1.213-0.482-0.262-1.066-0.457-1.751-0.585-0.687-0.134-1.409-0.261-2.167-0.378-0.765-0.117-1.506-0.314-2.225-0.592-0.718-0.278-1.346-0.685-1.883-1.222-0.542-0.529-0.92-1.276-1.135-2.24v0c-0.295-1.323-0.205-2.44 0.268-3.353 0.48-0.914 1.21-1.658 2.19-2.232 0.974-0.573 2.047-0.99 3.22-1.251v0c0.912-0.203 1.884-0.31 2.914-0.321 1.037-0.012 2 0.088 2.888 0.3v0c0.001 0.957-0.005 1.803-0.019 2.538-0.013 0.741-0.009 1.466 0.012 2.172v0l-2.041 0.414-1.099-2.535c-0.602-0.522-1.437-0.665-2.506-0.426v0c-0.573 0.128-1.072 0.376-1.496 0.743-0.418 0.367-0.56 0.846-0.428 1.44v0c0.128 0.573 0.436 0.99 0.925 1.25 0.495 0.259 1.105 0.445 1.827 0.558 0.723 0.113 1.492 0.235 2.308 0.367 0.821 0.125 1.613 0.335 2.377 0.63 0.763 0.295 1.427 0.742 1.992 1.341 0.571 0.598 0.975 1.428 1.211 2.49v0c0.279 1.251 0.165 2.319-0.342 3.205-0.512 0.894-1.292 1.629-2.34 2.204-1.042 0.574-2.214 1.006-3.517 1.297v0c-0.984 0.219-2.007 0.338-3.071 0.356-1.063 0.018-2.131-0.127-3.205-0.434z" fill="#000000" data-fill-palette-color="primary"></path><path d="M131.722 9.228v0c0.104 1.546 0.195 3.022 0.274 4.429 0.079 1.414 0.167 2.689 0.262 3.827v0c0.083 0.985 0.198 2.11 0.345 3.377 0.148 1.274 0.276 2.402 0.387 3.384v0l3.252 0.56-0.554 1.534c-0.696 0.005-1.394 0.031-2.093 0.076-0.706 0.046-1.764 0.129-3.175 0.248v0c-1.297 0.109-2.31 0.208-3.04 0.297-0.729 0.088-1.502 0.18-2.318 0.276v0l-0.763-1.423 3.312-1.114c-0.059-1.335-0.123-2.495-0.193-3.481-0.069-0.979-0.167-2.053-0.292-3.221v0c-0.051-0.605-0.103-1.147-0.157-1.625-0.054-0.478-0.119-1.015-0.196-1.611-0.077-0.596-0.195-1.354-0.353-2.271v0l-2.867-0.281-0.727-1.466c0.61-0.078 1.395-0.185 2.355-0.32 0.967-0.135 2.018-0.304 3.153-0.507 1.129-0.202 2.258-0.432 3.388-0.688zM128.481 6.537v0c-0.845 0.071-1.6-0.187-2.266-0.773-0.665-0.58-1.037-1.336-1.116-2.267v0c-0.074-0.878 0.168-1.659 0.727-2.343 0.558-0.69 1.26-1.071 2.104-1.142v0c0.851-0.072 1.61 0.186 2.276 0.772 0.665 0.58 1.035 1.309 1.109 2.188v0c0.079 0.931-0.161 1.739-0.72 2.422-0.558 0.69-1.263 1.071-2.114 1.143z" fill="#000000" data-fill-palette-color="primary"></path><path d="M148.494 9.491v0c1.973 0.107 3.594 0.609 4.862 1.507 1.275 0.898 2.2 2.028 2.775 3.389 0.581 1.369 0.83 2.823 0.747 4.363v0c-0.085 1.573-0.498 3.025-1.238 4.355-0.734 1.337-1.79 2.38-3.168 3.128-1.371 0.755-3.057 1.078-5.057 0.97v0c-1.993-0.108-3.644-0.618-4.951-1.532-1.315-0.907-2.281-2.072-2.9-3.496-0.612-1.417-0.875-2.912-0.79-4.485v0c0.083-1.54 0.497-2.951 1.242-4.235 0.751-1.276 1.835-2.284 3.253-3.023 1.411-0.739 3.152-1.053 5.225-0.941zM144.399 17.152v0c-0.072 1.333 0.013 2.605 0.255 3.814 0.242 1.216 0.649 2.215 1.222 2.995 0.573 0.773 1.283 1.183 2.13 1.228v0c1.013 0.055 1.796-0.454 2.349-1.528 0.553-1.08 0.874-2.443 0.963-4.089v0c0.072-1.333-0.013-2.598-0.256-3.795-0.242-1.203-0.643-2.198-1.202-2.983-0.559-0.792-1.275-1.212-2.148-1.259v0c-1.013-0.055-1.796 0.454-2.349 1.527-0.553 1.08-0.874 2.443-0.964 4.09z" fill="#000000" data-fill-palette-color="primary"></path><path d="M178.007 14.837v0c1.466 0.382 2.526 1.252 3.18 2.608 0.654 1.357 0.804 2.924 0.451 4.702v0c-0.095 0.472-0.285 1.199-0.568 2.18-0.285 0.988-0.585 2.059-0.899 3.212-0.316 1.159-0.602 2.23-0.858 3.212v0l2.688 1.559-0.994 1.273c-0.658-0.227-1.409-0.457-2.252-0.691-0.849-0.235-1.687-0.46-2.514-0.675v0c-1.001-0.261-1.906-0.483-2.714-0.666-0.808-0.183-1.548-0.348-2.219-0.496v0l-0.131-1.565 3.03-0.07c0.255-0.872 0.474-1.608 0.658-2.208 0.184-0.601 0.361-1.199 0.53-1.797 0.171-0.604 0.352-1.323 0.541-2.156v0c0.383-1.577 0.398-2.797 0.044-3.662-0.354-0.865-1.027-1.551-2.02-2.058v0c-1.332 0.453-2.398 1.155-3.198 2.106-0.791 0.946-1.302 1.913-1.532 2.901v0l-0.989-2.079c0.563-1.419 1.351-2.618 2.364-3.595 1.005-0.973 2.15-1.644 3.433-2.014 1.276-0.371 2.599-0.378 3.968-0.021zM171.758 13.002v0c-0.222 0.853-0.402 1.544-0.54 2.074-0.138 0.53-0.282 1.055-0.431 1.574-0.151 0.526-0.367 1.222-0.647 2.087v0l-2.193 9.052 2.61 1.539-0.877 1.303c-0.865-0.281-1.68-0.527-2.446-0.74-0.772-0.215-1.623-0.444-2.553-0.686v0c-1.001-0.261-1.874-0.474-2.617-0.641-0.743-0.166-1.49-0.333-2.239-0.5v0l-0.247-1.596 3.107-0.05c0.215-0.827 0.502-1.794 0.86-2.901 0.356-1.101 0.665-2.155 0.927-3.162v0c0.195-0.749 0.351-1.374 0.468-1.876 0.118-0.507 0.224-1.045 0.317-1.614 0.093-0.569 0.205-1.316 0.336-2.241v0l-2.822-1.522-0.081-1.594c1.538 0.318 3.004 0.583 4.398 0.794 1.387 0.21 2.944 0.443 4.67 0.7z" fill="#000000" data-fill-palette-color="primary"></path><path d="M207.668 41.923l-0.039 2.24c-1.196 0.26-2.476 0.337-3.84 0.232-1.369-0.109-2.746-0.56-4.129-1.355v0c-1.667-0.957-2.847-2.127-3.539-3.51-0.701-1.38-0.994-2.807-0.879-4.28 0.106-1.471 0.524-2.844 1.255-4.118v0c0.741-1.291 1.74-2.361 2.998-3.209 1.248-0.846 2.673-1.31 4.274-1.391 1.596-0.084 3.294 0.39 5.094 1.424v0c0.973 0.558 1.865 1.217 2.677 1.975 0.806 0.755 1.484 1.645 2.035 2.67v0c-1.012 1.012-1.811 1.866-2.395 2.562-0.584 0.696-1.144 1.349-1.678 1.958v0l-1.728-0.992 1.288-3.452c-0.303-0.813-0.745-1.571-1.326-2.274-0.576-0.7-1.247-1.24-2.015-1.619v0c-0.819 0.3-1.586 0.764-2.301 1.393-0.713 0.638-1.308 1.373-1.787 2.207v0c-0.715 1.245-1.114 2.443-1.198 3.595-0.075 1.15 0.109 2.183 0.552 3.1 0.438 0.913 1.085 1.616 1.942 2.108v0c0.579 0.332 1.268 0.567 2.068 0.703 0.794 0.132 1.684 0.143 2.671 0.033z" fill="#000000" data-fill-palette-color="primary"></path><path d="M233.019 29.666v0c-2.807 3.551-5.651 7.183-8.533 10.895-2.882 3.712-5.637 7.316-8.265 10.812v0l1.974 2.597-1.511 0.699c-0.362-0.317-0.703-0.608-1.021-0.873-0.313-0.261-0.691-0.574-1.136-0.937-0.444-0.364-1.056-0.85-1.834-1.458v0c-0.689-0.538-1.264-0.979-1.725-1.322-0.461-0.343-0.874-0.649-1.24-0.917-0.366-0.269-0.776-0.563-1.229-0.884v0l0.312-1.636 2.998 1.286c1.796-2.214 3.622-4.498 5.478-6.852 1.855-2.354 3.607-4.62 5.256-6.796 1.649-2.177 3.062-4.106 4.239-5.787v0l-2.362-2.556 0.645-1.478c0.517 0.336 1.2 0.801 2.049 1.396 0.854 0.599 1.803 1.238 2.847 1.919 1.039 0.676 2.058 1.307 3.058 1.892z" fill="#000000" data-fill-palette-color="primary"></path><path d="M237.188 50.242v0c-1.108 1.082-2.172 2.11-3.192 3.082-1.024 0.978-1.937 1.872-2.74 2.684v0c-0.695 0.702-1.477 1.521-2.345 2.455-0.873 0.939-1.648 1.769-2.324 2.49v0l1.686 2.838-1.526 0.575c-0.456-0.526-0.928-1.041-1.417-1.544-0.494-0.507-1.243-1.259-2.25-2.254v0c-0.925-0.916-1.658-1.622-2.199-2.12-0.541-0.498-1.112-1.026-1.714-1.584v0l0.586-1.504 2.998 1.797c0.977-0.911 1.818-1.714 2.522-2.407 0.7-0.688 1.453-1.459 2.261-2.313v0c0.427-0.432 0.805-0.823 1.134-1.174 0.329-0.351 0.695-0.749 1.098-1.195 0.404-0.446 0.903-1.027 1.499-1.743v0l-1.647-2.363 0.643-1.505c0.455 0.413 1.046 0.941 1.771 1.584 0.73 0.648 1.541 1.337 2.433 2.069 0.887 0.727 1.794 1.437 2.723 2.132zM237.131 46.029v0c-0.603-0.596-0.897-1.338-0.883-2.226 0.01-0.883 0.343-1.656 1-2.321v0c0.62-0.626 1.371-0.949 2.254-0.967 0.887-0.024 1.632 0.263 2.235 0.859v0c0.607 0.601 0.904 1.345 0.89 2.233-0.01 0.883-0.324 1.637-0.944 2.264v0c-0.657 0.664-1.427 1.006-2.31 1.024-0.887 0.024-1.635-0.265-2.242-0.866z" fill="#000000" data-fill-palette-color="primary"></path><path d="M251.3 68.208v0c0.892 1.225 1.16 2.57 0.805 4.034-0.355 1.464-1.232 2.771-2.632 3.922v0c-0.373 0.304-0.98 0.746-1.821 1.326-0.847 0.583-1.757 1.221-2.732 1.913-0.979 0.696-1.879 1.343-2.699 1.941v0l1.09 2.909-1.576 0.354c-0.365-0.593-0.8-1.247-1.304-1.961-0.508-0.72-1.013-1.426-1.516-2.117v0c-0.609-0.837-1.168-1.582-1.676-2.235-0.509-0.654-0.976-1.25-1.402-1.791v0l0.891-1.293 2.387 1.867c0.75-0.513 1.386-0.943 1.909-1.291 0.523-0.348 1.04-0.699 1.55-1.053 0.515-0.358 1.11-0.8 1.785-1.324v0c1.296-0.976 2.081-1.911 2.356-2.805 0.275-0.893 0.189-1.851-0.257-2.872v0c-1.318-0.494-2.587-0.627-3.808-0.399-1.212 0.23-2.22 0.654-3.025 1.273v0l0.553-2.236c1.335-0.741 2.705-1.168 4.108-1.281 1.394-0.115 2.705 0.091 3.931 0.62 1.222 0.522 2.25 1.355 3.083 2.499zM247.631 62.828v0c-0.712 0.519-1.29 0.939-1.732 1.261-0.443 0.322-0.886 0.637-1.332 0.944-0.45 0.311-1.058 0.713-1.823 1.204v0l-7.436 5.61 1.043 2.845-1.504 0.451c-0.491-0.765-0.965-1.473-1.422-2.123-0.461-0.656-0.974-1.372-1.54-2.15v0c-0.609-0.837-1.148-1.555-1.617-2.154-0.469-0.6-0.941-1.202-1.414-1.807v0l0.821-1.39 2.434 1.932c0.691-0.503 1.526-1.069 2.504-1.699 0.973-0.626 1.881-1.245 2.722-1.858v0c0.626-0.456 1.143-0.84 1.551-1.153 0.413-0.317 0.836-0.666 1.269-1.048 0.433-0.381 0.993-0.888 1.68-1.52v0l-1.217-2.966 0.947-1.284c0.988 1.221 1.954 2.355 2.898 3.403 0.94 1.042 1.996 2.209 3.168 3.502z" fill="#000000" data-fill-palette-color="primary"></path><path d="M262.36 86.841v0c-1.399 0.664-2.739 1.291-4.019 1.881-1.286 0.593-2.44 1.143-3.462 1.65v0c-0.885 0.439-1.89 0.96-3.015 1.562-1.13 0.605-2.132 1.139-3.005 1.602v0l0.674 3.231-1.63 0.049c-0.261-0.646-0.541-1.286-0.84-1.92-0.302-0.64-0.768-1.594-1.397-2.861v0c-0.578-1.166-1.043-2.072-1.393-2.719-0.35-0.646-0.72-1.331-1.108-2.054v0l1.043-1.233 2.253 2.672c1.22-0.545 2.275-1.032 3.166-1.459 0.885-0.424 1.848-0.909 2.889-1.454v0c0.544-0.27 1.029-0.518 1.453-0.744 0.425-0.226 0.9-0.484 1.427-0.774 0.526-0.291 1.187-0.678 1.983-1.162v0l-0.793-2.771 1.097-1.214c0.297 0.538 0.684 1.229 1.162 2.073 0.481 0.849 1.024 1.765 1.63 2.746 0.603 0.975 1.231 1.942 1.885 2.899zM263.672 82.837v0c-0.377-0.76-0.414-1.557-0.113-2.392 0.295-0.832 0.862-1.456 1.699-1.87v0c0.789-0.392 1.605-0.453 2.445-0.185 0.847 0.266 1.459 0.778 1.836 1.538v0c0.38 0.766 0.419 1.566 0.117 2.4-0.295 0.832-0.838 1.444-1.627 1.836v0c-0.837 0.415-1.676 0.489-2.517 0.22-0.847-0.266-1.46-0.781-1.84-1.547z" fill="#000000" data-fill-palette-color="primary"></path><path d="M258.211 111.869l-1.507 1.659c-1.071-0.593-2.084-1.378-3.04-2.357-0.958-0.984-1.696-2.231-2.212-3.74v0c-0.623-1.819-0.739-3.476-0.348-4.972 0.383-1.5 1.103-2.766 2.16-3.799 1.049-1.037 2.269-1.793 3.658-2.269v0c1.408-0.482 2.865-0.628 4.37-0.438 1.496 0.186 2.873 0.777 4.131 1.772 1.256 0.988 2.22 2.465 2.892 4.428v0c0.363 1.061 0.6 2.144 0.711 3.25 0.108 1.099 0.032 2.215-0.229 3.349v0c-1.428 0.094-2.592 0.21-3.49 0.348-0.898 0.138-1.749 0.26-2.553 0.366v0l-0.645-1.885 3.244-1.746c0.308-0.811 0.475-1.673 0.501-2.585 0.028-0.906-0.121-1.754-0.448-2.545v0c-0.813-0.314-1.696-0.471-2.648-0.47-0.956 0.01-1.889 0.171-2.799 0.482v0c-1.358 0.465-2.448 1.103-3.271 1.914-0.815 0.815-1.357 1.714-1.628 2.696-0.273 0.975-0.249 1.931 0.071 2.865v0c0.216 0.632 0.58 1.262 1.092 1.891 0.51 0.623 1.172 1.218 1.988 1.786z" fill="#000000" data-fill-palette-color="primary"></path><path d="M31.976 189.687v0c0.522 1.423 0.412 2.789-0.331 4.1-0.742 1.31-1.944 2.327-3.606 3.051v0c-0.442 0.191-1.147 0.449-2.115 0.776-0.974 0.329-2.025 0.693-3.151 1.092-1.133 0.401-2.175 0.777-3.128 1.126v0l0.251 3.097-1.612-0.091c-0.189-0.67-0.428-1.418-0.717-2.244-0.291-0.832-0.584-1.649-0.878-2.451v0c-0.356-0.971-0.69-1.841-0.999-2.609-0.31-0.768-0.596-1.47-0.859-2.107v0l1.212-0.999 1.784 2.45c0.862-0.288 1.591-0.527 2.19-0.718 0.598-0.191 1.191-0.387 1.779-0.589 0.594-0.204 1.287-0.465 2.08-0.784v0c1.514-0.584 2.525-1.268 3.034-2.052 0.509-0.784 0.689-1.728 0.539-2.833v0c-1.132-0.836-2.316-1.312-3.553-1.427-1.228-0.111-2.314 0.021-3.257 0.395v0l1.144-1.998c1.487-0.346 2.921-0.382 4.302-0.106 1.372 0.272 2.576 0.829 3.611 1.672 1.032 0.837 1.792 1.92 2.28 3.249zM29.922 183.507v0c-0.827 0.303-1.498 0.55-2.012 0.739-0.514 0.189-1.027 0.37-1.539 0.543-0.519 0.176-1.213 0.395-2.084 0.658v0l-8.688 3.358 0.224 3.021-1.571 0.022c-0.263-0.871-0.524-1.681-0.785-2.432-0.263-0.757-0.561-1.586-0.892-2.488v0c-0.356-0.971-0.678-1.81-0.965-2.515-0.287-0.705-0.576-1.414-0.865-2.126v0l1.17-1.112 1.812 2.525c0.802-0.294 1.76-0.61 2.873-0.948 1.107-0.335 2.15-0.682 3.128-1.04v0c0.727-0.267 1.329-0.495 1.807-0.685 0.484-0.192 0.987-0.412 1.507-0.659 0.521-0.248 1.198-0.582 2.033-1.002v0l-0.358-3.186 1.263-0.975c0.616 1.445 1.234 2.801 1.854 4.066 0.618 1.259 1.314 2.671 2.088 4.236z" fill="#000000" data-fill-palette-color="primary"></path><path d="M40.203 206.362v0c0.678 1.142 1.054 2.351 1.128 3.627 0.071 1.27-0.231 2.501-0.905 3.693-0.669 1.189-1.769 2.238-3.302 3.148v0c-0.392-0.451-0.867-1.069-1.427-1.855-0.556-0.78-1.144-1.654-1.765-2.62-0.617-0.961-1.219-1.936-1.805-2.923v0c-0.436-0.735-0.798-1.37-1.084-1.906-0.29-0.542-0.479-0.911-0.565-1.109v0l1.644-0.976c0.15 0.253 0.378 0.637 0.685 1.154 0.303 0.511 0.657 1.081 1.062 1.71 0.405 0.629 0.809 1.232 1.212 1.807 0.407 0.581 0.768 1.058 1.082 1.431v0c0.469-0.309 0.878-0.731 1.229-1.265 0.345-0.531 0.546-1.139 0.605-1.826 0.062-0.681-0.132-1.4-0.582-2.158v0c-0.709-0.2-1.527-0.212-2.454-0.034-0.933 0.181-1.902 0.57-2.906 1.166v0c-2.067 1.227-3.33 2.558-3.789 3.995-0.465 1.44-0.324 2.789 0.422 4.046v0c0.763 1.286 2.025 2.365 3.785 3.238v0l-1.135 1.699c-1.476-0.459-2.741-1.133-3.796-2.021-1.058-0.893-1.913-1.888-2.563-2.985v0c-0.763-1.286-1.192-2.65-1.288-4.091-0.098-1.448 0.211-2.842 0.929-4.185 0.727-1.339 1.925-2.505 3.596-3.496v0c1.694-1.005 3.315-1.498 4.863-1.478 1.547 0.029 2.937 0.43 4.173 1.203 1.232 0.767 2.216 1.771 2.951 3.011z" fill="#000000" data-fill-palette-color="primary"></path><path d="M52.112 222.716v0l-0.701 1.478-2.551-1.494c-0.498 0.904-0.94 1.707-1.326 2.407-0.382 0.705-0.728 1.386-1.039 2.041-0.315 0.66-0.65 1.376-1.006 2.149-0.356 0.772-0.748 1.687-1.175 2.745v0c-0.195 0.182-0.584 0.363-1.166 0.543-0.582 0.179-1.213 0.33-1.893 0.454-0.684 0.128-1.301 0.202-1.849 0.222-0.549 0.02-0.893-0.046-1.035-0.197v0c0.909-1.911 1.715-3.653 2.42-5.226 0.699-1.568 1.369-3.114 2.01-4.638 0.632-1.523 1.285-3.15 1.961-4.88v0l-1.459-2.79 1.55-0.572c0.523 0.598 1.049 1.199 1.576 1.802 0.528 0.603 1.1 1.234 1.716 1.892v0c1.606 1.716 2.928 3.07 3.967 4.064zM54.96 225.467v0l1.449 1.607-3.339 2.631c-2.174 0.754-4.376 1.572-6.606 2.451-2.221 0.88-4.382 1.756-6.485 2.626v0l-1.608-1.718c1.295-0.453 2.682-0.988 4.163-1.605 1.48-0.617 2.973-1.273 4.479-1.97 1.497-0.697 2.932-1.386 4.305-2.067 1.369-0.677 2.583-1.329 3.642-1.955zM49.926 228.807l6.483-1.733c-0.876 1.761-1.631 3.304-2.265 4.629-0.639 1.33-1.242 2.615-1.807 3.858-0.575 1.242-1.206 2.624-1.895 4.145v0c-0.195 0.182-0.559 0.34-1.092 0.474-0.533 0.133-1.108 0.218-1.723 0.254-0.625 0.036-1.191 0.027-1.699-0.028-0.508-0.055-0.845-0.17-1.009-0.345v0c0.784-1.575 1.468-2.95 2.05-4.126 0.578-1.18 1.1-2.318 1.565-3.412 0.471-1.099 0.935-2.338 1.392-3.716zM65.077 236.572v0l-0.646 1.537-2.852-1.816c-1.849 0.633-3.593 1.232-5.231 1.795-1.639 0.574-3.25 1.153-4.833 1.738-1.588 0.59-3.257 1.233-5.009 1.931v0l-1.587-1.696c2.194-0.773 4.54-1.675 7.04-2.706 2.504-1.027 4.92-2.227 7.246-3.6v0l-1.568-2.907 1.515-0.608c1.073 1.264 2.072 2.39 2.998 3.379v0c0.62 0.663 1.136 1.195 1.548 1.596 0.412 0.401 0.871 0.853 1.379 1.357z" fill="#000000" data-fill-palette-color="primary"></path><path d="M83.862 248.594v0l-0.131 1.662-3.086-0.681c-0.095 1.066-0.187 1.978-0.273 2.737-0.081 0.762-0.142 1.501-0.184 2.216-0.044 0.721-0.073 1.527-0.087 2.417-0.014 0.89-0.014 1.989 0.002 3.298v0c-0.081 0.26-0.358 0.573-0.832 0.938-0.473 0.365-1.01 0.722-1.612 1.071-0.604 0.355-1.164 0.627-1.678 0.817-0.515 0.191-0.866 0.235-1.054 0.132v0c0.077-1.631 0.138-3.115 0.184-4.452 0.049-1.343 0.093-2.623 0.134-3.84 0.044-1.223 0.08-2.493 0.107-3.809 0.024-1.326 0.034-2.792 0.029-4.4v0l-1.924-2.054 1.081-1.144c0.684 0.404 1.354 0.8 2.009 1.188 0.655 0.388 1.428 0.825 2.319 1.312v0c0.978 0.534 1.896 1.02 2.752 1.457 0.851 0.434 1.599 0.812 2.244 1.135zM93.574 253.896v0l-0.167 1.643-3.05-0.661c-1.796 1.172-3.374 2.272-4.735 3.302-1.37 1.032-2.699 2.059-3.988 3.082-1.292 1.029-2.696 2.13-4.211 3.302v0l-2.496-1.363c2.082-1.472 4.138-2.996 6.171-4.571 2.026-1.579 4.072-3.397 6.139-5.456v0l-2.276-2.246 1.248-1.053c0.737 0.433 1.386 0.818 1.948 1.155 0.561 0.337 1.144 0.67 1.747 0.999v0c0.797 0.435 1.448 0.775 1.953 1.021 0.505 0.245 1.077 0.527 1.717 0.846z" fill="#000000" data-fill-palette-color="primary"></path><path d="M103.91 256.963v0c-0.542 1.451-1.066 2.834-1.573 4.149-0.51 1.321-0.955 2.519-1.336 3.596v0c-0.329 0.931-0.688 2.005-1.075 3.22-0.39 1.222-0.737 2.303-1.041 3.243v0l2.735 1.849-1.137 1.17c-0.637-0.282-1.283-0.546-1.939-0.792-0.663-0.249-1.661-0.609-2.996-1.081v0c-1.227-0.434-2.191-0.761-2.892-0.981-0.701-0.22-1.443-0.454-2.227-0.702v0l-0.11-1.611 3.478 0.348c0.496-1.241 0.914-2.325 1.256-3.252 0.34-0.921 0.693-1.939 1.06-3.056v0c0.203-0.573 0.378-1.088 0.525-1.545 0.148-0.458 0.309-0.974 0.484-1.549 0.175-0.575 0.38-1.314 0.614-2.216v0l-2.498-1.436-0.059-1.635c0.588 0.18 1.347 0.406 2.278 0.678 0.937 0.275 1.964 0.553 3.082 0.835 1.112 0.28 2.236 0.536 3.371 0.768zM102.063 253.177v0c-0.799-0.283-1.382-0.829-1.747-1.638-0.368-0.803-0.396-1.645-0.083-2.526v0c0.294-0.831 0.836-1.443 1.626-1.836 0.793-0.399 1.589-0.458 2.388-0.175v0c0.806 0.285 1.391 0.832 1.756 1.641 0.368 0.803 0.404 1.619 0.111 2.45v0c-0.312 0.881-0.863 1.518-1.653 1.912-0.793 0.399-1.592 0.457-2.398 0.172z" fill="#000000" data-fill-palette-color="primary"></path><path d="M105.356 274.479v0c0.428-0.937 0.787-1.722 1.079-2.355 0.291-0.633 0.576-1.328 0.855-2.087v0l1.945 0.433-0.054 3.189c0.275 0.362 0.63 0.674 1.064 0.935 0.429 0.253 0.878 0.432 1.347 0.536v0c0.652 0.145 1.266 0.121 1.842-0.072 0.578-0.199 0.94-0.625 1.085-1.276v0c0.122-0.547 0.02-1.042-0.305-1.484-0.326-0.442-0.771-0.866-1.337-1.273-0.565-0.413-1.165-0.834-1.802-1.263-0.643-0.43-1.23-0.924-1.762-1.48-0.533-0.556-0.928-1.192-1.186-1.906-0.266-0.709-0.292-1.546-0.077-2.51v0c0.295-1.323 0.85-2.297 1.667-2.922 0.823-0.624 1.8-0.987 2.931-1.091 1.125-0.105 2.273-0.027 3.446 0.235v0c0.912 0.203 1.837 0.519 2.774 0.947 0.944 0.429 1.773 0.929 2.488 1.498v0c-0.405 0.867-0.77 1.631-1.095 2.29-0.326 0.666-0.63 1.323-0.912 1.972v0l-2.024-0.493 0.082-2.762c-0.323-0.729-1.019-1.212-2.088-1.45v0c-0.573-0.128-1.13-0.115-1.67 0.038-0.534 0.155-0.867 0.528-0.999 1.122v0c-0.128 0.573-0.026 1.082 0.306 1.525 0.339 0.445 0.811 0.872 1.418 1.28 0.607 0.409 1.251 0.847 1.934 1.313 0.69 0.462 1.319 0.988 1.884 1.58 0.566 0.591 0.977 1.278 1.234 2.06 0.263 0.784 0.276 1.706 0.039 2.768v0c-0.279 1.251-0.836 2.17-1.671 2.757-0.843 0.592-1.861 0.926-3.054 1.002-1.187 0.077-2.432-0.029-3.735-0.32v0c-0.984-0.219-1.961-0.546-2.931-0.981-0.97-0.435-1.876-1.02-2.718-1.755z" fill="#000000" data-fill-palette-color="primary"></path><path d="M133.238 262.467v0c-0.157 1.541-0.314 3.012-0.473 4.412-0.159 1.407-0.286 2.679-0.382 3.816v0c-0.083 0.985-0.158 2.114-0.226 3.388-0.068 1.281-0.13 2.414-0.186 3.401v0l3.113 1.097-0.803 1.419c-0.687-0.112-1.38-0.204-2.077-0.276-0.704-0.073-1.761-0.169-3.171-0.287v0c-1.297-0.109-2.313-0.182-3.047-0.217-0.734-0.035-1.511-0.074-2.332-0.117v0l-0.514-1.53 3.453-0.543c0.165-1.326 0.296-2.481 0.393-3.464 0.096-0.977 0.18-2.052 0.252-3.225v0c0.051-0.605 0.09-1.148 0.117-1.628 0.027-0.48 0.053-1.021 0.076-1.621 0.024-0.601 0.035-1.367 0.033-2.299v0l-2.78-0.757-0.47-1.567c0.614 0.025 1.406 0.052 2.375 0.08 0.976 0.029 2.04 0.038 3.193 0.028 1.146-0.01 2.299-0.047 3.456-0.11zM130.493 259.271v0c-0.845-0.071-1.546-0.452-2.104-1.143-0.559-0.684-0.799-1.491-0.72-2.422v0c0.074-0.878 0.444-1.607 1.109-2.188 0.666-0.587 1.421-0.845 2.266-0.773v0c0.851 0.072 1.556 0.453 2.114 1.143 0.559 0.684 0.801 1.464 0.727 2.343v0c-0.079 0.931-0.451 1.687-1.116 2.267-0.666 0.587-1.425 0.845-2.276 0.773z" fill="#000000" data-fill-palette-color="primary"></path><path d="M147.524 262.246v0c1.973-0.107 3.639 0.218 4.997 0.973 1.365 0.755 2.406 1.778 3.124 3.07 0.725 1.298 1.13 2.717 1.213 4.257v0c0.085 1.573-0.169 3.061-0.761 4.464-0.586 1.409-1.523 2.559-2.811 3.451-1.282 0.898-2.923 1.402-4.923 1.51v0c-1.993 0.108-3.689-0.222-5.087-0.988-1.405-0.76-2.492-1.814-3.26-3.163-0.761-1.343-1.184-2.801-1.27-4.374v0c-0.083-1.54 0.176-2.988 0.778-4.344 0.609-1.35 1.578-2.469 2.907-3.357 1.323-0.887 3.02-1.387 5.093-1.499zM144.28 270.304v0c0.072 1.333 0.294 2.588 0.665 3.765 0.372 1.183 0.884 2.132 1.538 2.845 0.653 0.707 1.403 1.037 2.25 0.991v0c1.013-0.055 1.737-0.646 2.17-1.772 0.433-1.133 0.606-2.523 0.517-4.169v0c-0.072-1.333-0.293-2.581-0.664-3.745-0.371-1.17-0.877-2.115-1.518-2.836-0.641-0.727-1.398-1.068-2.271-1.021v0c-1.013 0.055-1.737 0.646-2.171 1.773-0.433 1.133-0.606 2.523-0.516 4.169z" fill="#000000" data-fill-palette-color="primary"></path><path d="M173.461 257.377v0c1.466-0.382 2.816-0.14 4.049 0.725 1.233 0.865 2.129 2.16 2.688 3.883v0c0.147 0.458 0.336 1.185 0.568 2.181 0.233 1.002 0.494 2.082 0.783 3.242 0.29 1.166 0.563 2.24 0.819 3.222v0l3.107 0.049-0.247 1.596c-0.685 0.123-1.453 0.289-2.302 0.496-0.856 0.209-1.698 0.422-2.525 0.637v0c-1.001 0.261-1.899 0.509-2.693 0.743-0.794 0.235-1.521 0.451-2.18 0.651v0l-0.877-1.303 2.61-1.539c-0.203-0.885-0.371-1.635-0.503-2.249-0.132-0.614-0.27-1.223-0.414-1.827-0.145-0.611-0.339-1.326-0.58-2.146v0c-0.435-1.563-1.018-2.636-1.749-3.218-0.731-0.582-1.654-0.852-2.767-0.81v0c-0.942 1.046-1.53 2.178-1.764 3.398-0.229 1.212-0.203 2.305 0.079 3.281v0l-1.878-1.332c-0.201-1.514-0.098-2.944 0.309-4.293 0.403-1.34 1.074-2.484 2.014-3.432 0.933-0.947 2.084-1.599 3.453-1.955zM167.112 258.824v0c0.222 0.853 0.402 1.544 0.541 2.074 0.138 0.53 0.269 1.058 0.392 1.584 0.125 0.533 0.276 1.246 0.453 2.138v0l2.503 8.971 3.03 0.07-0.13 1.565c-0.892 0.177-1.724 0.36-2.497 0.547-0.779 0.189-1.633 0.405-2.563 0.647v0c-1.001 0.261-1.867 0.5-2.596 0.718-0.73 0.218-1.463 0.436-2.199 0.656v0l-0.994-1.273 2.688-1.559c-0.215-0.827-0.437-1.811-0.666-2.951-0.227-1.134-0.471-2.206-0.734-3.214v0c-0.195-0.749-0.364-1.371-0.506-1.865-0.144-0.501-0.315-1.022-0.511-1.564-0.196-0.542-0.463-1.249-0.801-2.119v0l-3.205 0.048-0.849-1.351c1.498-0.473 2.907-0.957 4.226-1.453 1.313-0.494 2.786-1.05 4.418-1.669z" fill="#000000" data-fill-palette-color="primary"></path><path d="M211.307 254.073l1.915 1.163c-0.378 1.164-0.957 2.308-1.735 3.433-0.784 1.128-1.868 2.089-3.252 2.883v0c-1.667 0.957-3.272 1.386-4.815 1.287-1.545-0.09-2.925-0.557-4.14-1.399-1.217-0.833-2.192-1.886-2.923-3.16v0c-0.741-1.291-1.161-2.693-1.261-4.206-0.102-1.504 0.216-2.968 0.954-4.393 0.732-1.421 1.998-2.648 3.798-3.682v0c0.973-0.558 1.991-0.997 3.055-1.315 1.058-0.315 2.169-0.452 3.331-0.412v0c0.364 1.385 0.699 2.505 1.006 3.36 0.306 0.856 0.588 1.668 0.845 2.437v0l-1.729 0.992-2.331-2.853c-0.855-0.148-1.733-0.148-2.633-0.001-0.895 0.144-1.699 0.452-2.414 0.924v0c-0.154 0.858-0.14 1.754 0.043 2.689 0.192 0.937 0.527 1.822 1.006 2.656v0c0.715 1.245 1.548 2.194 2.501 2.848 0.955 0.645 1.94 1.007 2.955 1.085 1.01 0.082 1.943-0.122 2.8-0.614v0c0.579-0.332 1.129-0.81 1.649-1.432 0.515-0.619 0.973-1.382 1.375-2.29z" fill="#000000" data-fill-palette-color="primary"></path><path d="M206.689 226.274v0c2.765 3.584 5.598 7.224 8.502 10.919 2.903 3.696 5.732 7.242 8.486 10.64v0l2.997-1.286 0.313 1.636c-0.395 0.275-0.76 0.534-1.095 0.779-0.329 0.24-0.724 0.532-1.185 0.874-0.461 0.343-1.08 0.818-1.859 1.426v0c-0.689 0.538-1.256 0.989-1.7 1.353-0.444 0.364-0.841 0.691-1.191 0.981-0.35 0.29-0.734 0.616-1.155 0.978v0l-1.512-0.7 1.975-2.596c-1.712-2.28-3.486-4.605-5.32-6.976-1.834-2.371-3.607-4.62-5.319-6.747-1.712-2.127-3.241-3.966-4.587-5.515v0l-3.052 1.672-1.277-0.985c0.451-0.42 1.068-0.97 1.851-1.648 0.788-0.683 1.638-1.449 2.551-2.297 0.908-0.844 1.767-1.68 2.577-2.508z" fill="#000000" data-fill-palette-color="primary"></path><path d="M224.508 226.603v0c1.07 1.12 2.087 2.194 3.049 3.224 0.967 1.034 1.852 1.957 2.655 2.768v0c0.695 0.702 1.505 1.492 2.431 2.37 0.93 0.883 1.752 1.666 2.466 2.35v0l2.855-1.656 0.558 1.532c-0.531 0.45-1.05 0.917-1.558 1.401-0.512 0.488-1.272 1.23-2.277 2.226v0c-0.925 0.916-1.639 1.641-2.143 2.177-0.503 0.536-1.037 1.102-1.602 1.698v0l-1.498-0.603 1.828-2.978c-0.901-0.987-1.695-1.836-2.38-2.548-0.681-0.707-1.444-1.469-2.289-2.285v0c-0.427-0.432-0.815-0.814-1.162-1.146-0.348-0.332-0.742-0.703-1.184-1.111-0.442-0.408-1.017-0.914-1.727-1.517v0l-2.381 1.624-1.497-0.66c0.418-0.451 0.952-1.036 1.602-1.754 0.655-0.724 1.353-1.527 2.094-2.411 0.736-0.879 1.456-1.779 2.16-2.701zM220.295 226.617v0c-0.603 0.596-1.348 0.883-2.235 0.859-0.883-0.019-1.653-0.36-2.31-1.025v0c-0.62-0.626-0.935-1.381-0.944-2.263-0.014-0.888 0.28-1.629 0.882-2.226v0c0.607-0.601 1.355-0.89 2.242-0.867 0.883 0.019 1.634 0.341 2.254 0.968v0c0.657 0.664 0.991 1.438 1 2.321 0.014 0.888-0.282 1.632-0.889 2.233z" fill="#000000" data-fill-palette-color="primary"></path><path d="M236.725 210.841v0c0.892-1.225 2.089-1.894 3.591-2.006 1.502-0.112 3.016 0.321 4.541 1.299v0c0.404 0.261 1.012 0.703 1.821 1.326 0.815 0.627 1.702 1.297 2.661 2.011 0.964 0.718 1.856 1.375 2.676 1.972v0l2.434-1.931 0.821 1.39c-0.452 0.53-0.94 1.144-1.466 1.844-0.529 0.705-1.045 1.402-1.548 2.093v0c-0.609 0.837-1.146 1.597-1.612 2.282-0.466 0.685-0.89 1.313-1.272 1.885v0l-1.505-0.451 1.043-2.845c-0.718-0.556-1.323-1.029-1.815-1.42-0.492-0.391-0.985-0.774-1.479-1.151-0.499-0.38-1.103-0.811-1.809-1.292v0c-1.327-0.933-2.458-1.393-3.393-1.379-0.935 0.013-1.819 0.389-2.653 1.127v0c-0.065 1.406 0.198 2.654 0.79 3.747 0.591 1.082 1.305 1.911 2.141 2.487v0l-2.297 0.161c-1.115-1.043-1.943-2.215-2.482-3.516-0.538-1.292-0.744-2.602-0.619-3.931 0.121-1.324 0.598-2.558 1.431-3.702zM232.733 215.986v0c0.712 0.519 1.29 0.939 1.732 1.261 0.443 0.322 0.879 0.648 1.308 0.977 0.435 0.333 1.003 0.788 1.706 1.365v0l7.624 5.351 2.387-1.867 0.892 1.293c-0.577 0.703-1.105 1.371-1.584 2.006-0.482 0.64-1.006 1.348-1.572 2.125v0c-0.609 0.837-1.127 1.57-1.553 2.202-0.426 0.631-0.854 1.265-1.284 1.901v0l-1.576-0.354 1.09-2.91c-0.691-0.503-1.486-1.123-2.386-1.86-0.894-0.734-1.763-1.407-2.605-2.02v0c-0.626-0.456-1.151-0.829-1.574-1.121-0.429-0.296-0.891-0.591-1.387-0.886-0.496-0.295-1.15-0.672-1.963-1.131v0l-2.448 2.07-1.513-0.507c0.858-1.316 1.641-2.583 2.347-3.803 0.702-1.214 1.489-2.578 2.359-4.092z" fill="#000000" data-fill-palette-color="primary"></path><path d="M246.21 194.808v0c1.376 0.712 2.686 1.399 3.93 2.061 1.25 0.665 2.387 1.251 3.409 1.757v0c0.885 0.439 1.908 0.924 3.068 1.455 1.166 0.534 2.198 1.008 3.095 1.423v0l2.163-2.493 1.025 1.269c-0.356 0.598-0.696 1.208-1.019 1.83-0.326 0.628-0.804 1.576-1.433 2.844v0c-0.578 1.166-1.019 2.084-1.321 2.754-0.302 0.67-0.624 1.378-0.965 2.126v0l-1.612-0.085 0.764-3.41c-1.172-0.641-2.198-1.187-3.078-1.638-0.873-0.448-1.842-0.921-2.906-1.419v0c-0.544-0.27-1.035-0.506-1.472-0.707-0.437-0.202-0.93-0.424-1.48-0.667-0.55-0.243-1.259-0.535-2.125-0.875v0l-1.726 2.307-1.63-0.138c0.249-0.562 0.565-1.289 0.947-2.179 0.385-0.897 0.785-1.883 1.199-2.96 0.411-1.07 0.801-2.155 1.167-3.255zM242.229 196.187v0c-0.377 0.76-0.989 1.272-1.836 1.538-0.841 0.268-1.68 0.195-2.517-0.221v0c-0.789-0.392-1.332-1.003-1.627-1.835-0.301-0.835-0.264-1.632 0.113-2.392v0c0.38-0.766 0.993-1.281 1.84-1.546 0.841-0.268 1.656-0.207 2.446 0.185v0c0.837 0.415 1.404 1.039 1.699 1.87 0.301 0.835 0.262 1.635-0.118 2.401z" fill="#000000" data-fill-palette-color="primary"></path><path d="M265.124 180.156l2.207-0.387c0.483 1.125 0.802 2.367 0.958 3.726 0.154 1.365-0.028 2.802-0.545 4.311v0c-0.623 1.819-1.547 3.199-2.773 4.142-1.222 0.951-2.567 1.51-4.035 1.677-1.464 0.176-2.891 0.026-4.281-0.45v0c-1.408-0.482-2.649-1.26-3.721-2.332-1.068-1.064-1.794-2.375-2.178-3.932-0.386-1.551-0.243-3.308 0.429-5.272v0c0.363-1.061 0.84-2.062 1.431-3.003 0.588-0.935 1.333-1.77 2.234-2.506v0c1.186 0.801 2.177 1.423 2.971 1.864 0.794 0.441 1.541 0.867 2.241 1.276v0l-0.646 1.885-3.633-0.609c-0.74 0.452-1.401 1.03-1.981 1.735-0.578 0.698-0.98 1.46-1.206 2.286v0c0.45 0.747 1.051 1.411 1.804 1.994 0.762 0.578 1.597 1.023 2.507 1.334v0c1.358 0.465 2.611 0.629 3.758 0.493 1.143-0.145 2.123-0.522 2.938-1.132 0.813-0.603 1.38-1.373 1.701-2.307v0c0.216-0.632 0.315-1.353 0.296-2.163-0.021-0.805-0.179-1.681-0.476-2.629z" fill="#000000" data-fill-palette-color="primary"></path><path d="M2.457 144.829c0-6.279 5.091-11.37 11.37-11.37 6.279 0 11.37 5.091 11.37 11.37 0 6.279-5.091 11.37-11.37 11.37-6.279 0-11.37-5.091-11.37-11.37z" fill="#000000" data-fill-palette-color="primary"></path><path d="M254.803 144.829c0-6.279 5.091-11.37 11.37-11.37 6.279 0 11.37 5.091 11.37 11.37 0 6.279-5.091 11.37-11.37 11.37-6.279 0-11.37-5.091-11.37-11.37z" fill="#000000" data-fill-palette-color="primary"></path></g><g id="text-1"></g></svg></g></svg></g></svg></g><g></g></svg></g><defs></defs></svg><rect width="280" height="280" fill="none" stroke="none" visibility="hidden"></rect></g></svg></g></svg>